<svg xmlns="http://www.w3.org/2000/svg" xmlns:xlink="http://www.w3.org/1999/xlink" width="41.156" height="41.156" viewBox="0 0 41.156 41.156">
  <defs>
    <style>
      .cls-1 {
        fill: #fff;
        filter: url(#filter);
      }

      .cls-2 {
        fill: #34495e;
        fill-rule: evenodd;
      }
    </style>
    <filter id="filter" x="0" y="0" width="41.156" height="41.156" filterUnits="userSpaceOnUse">
      <feFlood result="flood" flood-color="#fb565a"/>
      <feComposite result="composite" operator="in" in2="SourceGraphic"/>
      <feBlend result="blend" in2="SourceGraphic"/>
    </filter>
  </defs>
  <circle id="Эллипс_1" data-name="Эллипс 1" class="cls-1" cx="20.578" cy="20.578" r="20.578"/>
  <path id="Cross_16x16_copy" data-name="Cross (16x16) copy" class="cls-2" d="M888.745,294.514a0.808,0.808,0,0,1,0,1.14l-6.276,6.269a0.808,0.808,0,0,0,0,1.14l6.273,6.272a0.808,0.808,0,0,1,0,1.139l-2.285,2.278a0.812,0.812,0,0,1-1.141,0l-6.271-6.272a0.811,0.811,0,0,0-1.141,0l-6.276,6.267a0.811,0.811,0,0,1-1.141,0l-2.282-2.281a0.806,0.806,0,0,1,0-1.139l6.277-6.268a0.808,0.808,0,0,0,0-1.14l-6.272-6.272a0.808,0.808,0,0,1,0-1.14l2.284-2.277a0.81,0.81,0,0,1,1.141,0l6.271,6.269a0.808,0.808,0,0,0,1.14,0l6.276-6.266a0.811,0.811,0,0,1,1.141,0Z" transform="translate(-858.156 -281.5)"/>
</svg>
